<?xml version="1.0"?>
<svg width="795" height="1280" xmlns="http://www.w3.org/2000/svg" xmlns:svg="http://www.w3.org/2000/svg" preserveAspectRatio="xMidYMid meet">
 <metadata>Created by potrace 1.15, written by Peter Selinger 2001-2017</metadata>
 <g class="layer">
  <title>Layer 1</title>
  <g fill="#000000" id="svg_1" transform="translate(0 1280) scale(0.1 -0.1)">
   <path d="m0,6439l0,-6402l163,6c89,3 441,32 782,65c341,34 1048,102 1570,152c523,49 969,92 992,96l43,5l0,2040l0,2039l1630,0l1630,0l0,1575l0,1575l-1630,0l-1630,0l0,1080l0,1080l2200,0l2200,0l0,123l-1,122l-407,1420l-407,1420l-3568,3l-3567,2l0,-6401z" id="svg_2"/>
  </g>
  <path d="m355.967699,305.477409l0,216.000111l-87.000052,-216.000111l87.000052,0z" fill="#ffa000" id="svg_8" stroke="#ffa000" stroke-dasharray="null" stroke-linecap="null" stroke-linejoin="null" stroke-width="5"/>
  <path d="m147.187465,1.19251l120.750004,302.999959l402.500035,0l120.749961,-302.999959l-644,0z" fill="#ffa000" id="svg_19" stroke="#ffa000" stroke-dasharray="null" stroke-linecap="null" stroke-linejoin="null" stroke-width="5"/>
  <path d="m679.007517,832.572489l0,-308.000011l-399.000027,308.000011l399.000027,0z" fill="#efca0e" id="svg_23" stroke="#efca0e" stroke-dasharray="null" stroke-linecap="null" stroke-linejoin="null" stroke-width="5"/>
  <path d="m272.77251,1034.167587l0,-196.000042l-267.999999,196.000042l267.999999,0z" fill="#efca0e" id="svg_25" stroke="#efca0e" stroke-dasharray="null" stroke-linecap="null" stroke-linejoin="null" stroke-width="5"/>
  <path d="m4.07249,1245.937522l0,31.999988l346.999974,-31.999988l-346.999974,0z" fill="#efca0e" id="svg_26" stroke="#efca0e" stroke-dasharray="null" stroke-linecap="null" stroke-linejoin="null" stroke-width="5"/>
  <rect fill="#efca0e" height="205.999993" id="svg_33" stroke="#efca0e" stroke-dasharray="null" stroke-linecap="null" stroke-linejoin="null" stroke-width="5" width="348.000033" x="3.499981" y="1037.500006"/>
  <rect fill="#efca0e" height="199" id="svg_39" stroke="#efca0e" stroke-dasharray="null" stroke-linecap="null" stroke-linejoin="null" stroke-width="5" width="76" x="275.5" y="836.5"/>
 </g>
</svg>
